<svg width="345" height="193" viewBox="0 0 345 193" fill="none" xmlns="http://www.w3.org/2000/svg">
<path d="M139.294 15.8055C139.294 24.5109 132.271 31.611 123.522 31.611C114.836 31.611 107.751 24.5726 107.751 15.8055C107.751 7.10013 114.774 0 123.522 0C132.209 0 139.294 7.03839 139.294 15.8055Z" fill="white"/>
<path d="M10.9043 72.8532C10.9043 42.0448 35.8552 17.04 66.5972 17.04C97.3391 17.04 122.29 42.0448 122.29 72.8532C122.29 103.662 97.3391 128.666 66.5972 128.666C35.8552 128.666 10.9043 103.662 10.9043 72.8532Z" fill="white"/>
<path d="M66.5973 193C29.8795 193 0 163.056 0 126.259H21.8089C21.8089 151.017 41.8929 171.144 66.5973 171.144C91.3018 171.144 111.386 151.017 111.386 126.259H133.195C133.195 163.056 103.315 193 66.5973 193Z" fill="white"/>
<path d="M239.848 107.325C239.848 109.827 238.865 111.657 236.899 112.814C234.964 114.003 232.045 114.598 228.143 114.598C224.366 114.598 221.65 114.081 219.996 113.049C218.342 112.017 217.515 110.547 217.515 108.638C217.515 107.325 217.858 106.292 218.545 105.541C219.232 104.822 220.168 104.29 221.354 103.946V103.43C219.918 102.742 219.2 101.615 219.2 100.052C219.2 98.8316 219.59 97.9085 220.371 97.2831C221.151 96.6262 222.15 96.1415 223.367 95.8285V95.6408C221.931 94.9524 220.808 93.967 219.996 92.6847C219.216 91.4023 218.826 89.9163 218.826 88.227C218.826 87.0071 219.044 85.8809 219.481 84.8486C219.918 83.8163 220.527 82.9402 221.307 82.221C222.119 81.4702 223.071 80.8917 224.163 80.4848C225.287 80.078 226.536 79.8748 227.909 79.8748C229.626 79.8748 231.155 80.1879 232.497 80.8133V80.391C232.497 79.4525 232.716 78.6863 233.153 78.0918C233.59 77.4663 234.308 77.1533 235.307 77.1533H238.912V80.4379H234.324V81.9863C235.198 82.7371 235.869 83.6441 236.337 84.7079C236.836 85.7402 237.086 86.9132 237.086 88.227C237.086 89.447 236.867 90.5732 236.43 91.6055C235.994 92.6378 235.369 93.5293 234.558 94.2801C233.777 94.9993 232.825 95.5624 231.702 95.9693C230.578 96.3761 229.329 96.5793 227.956 96.5793C227.175 96.5793 226.395 96.5009 225.615 96.3447C224.803 96.5638 224.07 96.8923 223.414 97.33C222.759 97.7369 222.431 98.3154 222.431 99.0662C222.431 99.7854 222.774 100.271 223.461 100.521C224.148 100.771 225.037 100.896 226.13 100.896H231.28C234.277 100.896 236.446 101.475 237.788 102.632C239.162 103.758 239.848 105.322 239.848 107.325ZM236.337 107.606C236.337 106.636 235.962 105.855 235.213 105.26C234.495 104.697 233.2 104.415 231.327 104.415H223.274C221.775 105.104 221.026 106.198 221.026 107.7C221.026 108.764 221.416 109.671 222.197 110.421C223.008 111.172 224.366 111.548 226.27 111.548H229.735C231.827 111.548 233.449 111.219 234.604 110.562C235.76 109.905 236.337 108.92 236.337 107.606ZM227.956 93.5762C229.548 93.5762 230.812 93.2008 231.748 92.4501C232.685 91.6678 233.153 90.4793 233.153 88.884V87.5701C233.153 85.9748 232.685 84.8017 231.748 84.0509C230.812 83.2687 229.548 82.8779 227.956 82.8779C226.364 82.8779 225.1 83.2687 224.163 84.0509C223.227 84.8017 222.759 85.9748 222.759 87.5701V88.884C222.759 90.4793 223.227 91.6678 224.163 92.4501C225.1 93.2008 226.364 93.5762 227.956 93.5762Z" fill="white"/>
<path d="M244.334 104.712V80.3242H248.092V84.8312H248.338C248.77 83.6582 249.571 82.6086 250.68 81.6825C251.788 80.7564 253.39 80.3242 255.362 80.3242H256.84V84.0904H254.622C252.589 84.0904 250.988 84.4608 249.817 85.2634C248.646 86.0661 248.092 86.9922 248.092 88.1652V104.712H244.334Z" fill="white"/>
<path d="M278.28 104.712C276.863 104.712 275.877 104.341 275.261 103.6C274.645 102.859 274.275 101.872 274.09 100.76H273.844C273.289 102.304 272.427 103.415 271.195 104.156C269.963 104.897 268.484 105.267 266.821 105.267C264.233 105.267 262.262 104.588 260.783 103.292C259.366 101.995 258.627 100.143 258.627 97.9202C258.627 95.6358 259.489 93.8453 261.153 92.6105C262.816 91.3757 265.465 90.7583 269.039 90.7583H273.844V88.3505C273.844 86.6217 273.351 85.2634 272.427 84.3991C271.503 83.473 270.024 83.0408 268.114 83.0408C266.636 83.0408 265.404 83.3495 264.418 84.0286C263.432 84.7078 262.631 85.5721 261.954 86.6835L259.674 84.5843C260.352 83.2878 261.399 82.1147 262.816 81.1886C264.233 80.2625 266.081 79.7686 268.299 79.7686C271.256 79.7686 273.536 80.5094 275.199 81.9295C276.863 83.3495 277.664 85.3869 277.664 87.98V101.378H280.436V104.712H278.28ZM267.437 102.057C268.361 102.057 269.223 101.933 270.024 101.748C270.825 101.501 271.503 101.192 272.057 100.822C272.612 100.39 273.043 99.9576 273.351 99.402C273.659 98.8463 273.844 98.2906 273.844 97.6732V93.6601H268.854C266.697 93.6601 265.096 93.9688 264.11 94.5862C263.124 95.2036 262.631 96.1297 262.631 97.3028V98.2906C262.631 99.4637 263.063 100.39 263.925 101.069C264.788 101.748 265.958 102.057 267.437 102.057Z" fill="white"/>
<path d="M284.81 104.712V80.3242H288.568V84.2756H288.752C289.06 83.6582 289.368 83.0408 289.738 82.5469C290.108 81.9912 290.539 81.4973 291.032 81.1268C291.525 80.6947 292.141 80.386 292.88 80.139C293.558 79.892 294.42 79.7686 295.344 79.7686C296.946 79.7686 298.425 80.139 299.78 80.9416C301.135 81.6825 302.121 82.979 302.799 84.7078H302.922C303.353 83.4112 304.216 82.2382 305.386 81.2503C306.619 80.2625 308.22 79.7686 310.315 79.7686C312.779 79.7686 314.751 80.5712 316.168 82.1764C317.585 83.7817 318.262 86.0661 318.262 89.0296V104.712H314.504V89.7087C314.504 87.5478 314.073 85.8808 313.21 84.7695C312.348 83.6582 310.993 83.1025 309.144 83.1025C308.405 83.1025 307.666 83.226 306.988 83.4112C306.31 83.5965 305.694 83.9052 305.202 84.2756C304.647 84.646 304.216 85.14 303.908 85.6956C303.6 86.2513 303.415 86.9922 303.415 87.7331V104.712H299.657V89.7087C299.657 87.5478 299.226 85.8808 298.363 84.7695C297.501 83.6582 296.207 83.1025 294.42 83.1025C293.681 83.1025 292.942 83.226 292.264 83.4112C291.586 83.5965 290.97 83.9052 290.416 84.2756C289.861 84.646 289.43 85.14 289.122 85.6956C288.814 86.2513 288.629 86.9922 288.629 87.7331V104.712H284.81Z" fill="white"/>
<path d="M342.844 104.712C341.427 104.712 340.441 104.341 339.825 103.6C339.209 102.859 338.84 101.872 338.655 100.76H338.408C337.854 102.304 336.991 103.415 335.759 104.156C334.527 104.897 333.049 105.267 331.385 105.267C328.798 105.267 326.826 104.588 325.348 103.292C323.931 101.995 323.191 100.143 323.191 97.9202C323.191 95.6358 324.054 93.8453 325.717 92.6105C327.381 91.3757 330.03 90.7583 333.603 90.7583H338.408V88.3505C338.408 86.6217 337.916 85.2634 336.991 84.3991C336.067 83.473 334.589 83.0408 332.679 83.0408C331.2 83.0408 329.968 83.3495 328.982 84.0286C327.997 84.7078 327.134 85.5721 326.518 86.6835L324.239 84.5843C324.916 83.2878 325.964 82.1147 327.381 81.1886C328.798 80.2625 330.646 79.7686 332.864 79.7686C335.821 79.7686 338.1 80.5094 339.764 81.9295C341.427 83.3495 342.228 85.3869 342.228 87.98V101.378H345V104.712H342.844ZM332.001 102.057C332.925 102.057 333.788 101.933 334.589 101.748C335.39 101.501 336.067 101.192 336.622 100.822C337.176 100.39 337.608 99.9576 337.916 99.402C338.224 98.8463 338.408 98.2906 338.408 97.6732V93.6601H333.418C331.262 93.6601 329.66 93.9688 328.674 94.5862C327.689 95.2036 327.196 96.1297 327.196 97.3028V98.2906C327.196 99.4637 327.627 100.39 328.49 101.069C329.352 101.748 330.523 102.057 332.001 102.057Z" fill="white"/>
</svg>
